<svg xmlns="http://www.w3.org/2000/svg" width="46.089" height="39.505" viewBox="0 0 46.089 39.505">
  <path id="arrow-right-solid_2_" data-name="arrow-right-solid (2)" d="M19.6,40.3l2.284-2.008a2.7,2.7,0,0,1,3.487,0l20,17.577a1.984,1.984,0,0,1,0,3.067l-20,17.586a2.7,2.7,0,0,1-3.487,0L19.6,74.509a2,2,0,0,1,.041-3.1l12.4-10.385H2.469A2.329,2.329,0,0,1,0,58.85V55.955a2.329,2.329,0,0,1,2.469-2.171H32.032L19.637,43.4A1.983,1.983,0,0,1,19.6,40.3Z" transform="translate(0 -37.65)" fill="#ed6d3c"/>
</svg>
