<svg xmlns="http://www.w3.org/2000/svg" width="20" height="20" viewBox="0 0 20 20">
  <path id="hamburger" d="M.714,63.673H19.286A.77.77,0,0,0,20,62.857V60.816A.77.77,0,0,0,19.286,60H.714A.77.77,0,0,0,0,60.816v2.041A.77.77,0,0,0,.714,63.673Zm0,8.163H19.286A.77.77,0,0,0,20,71.02V68.98a.77.77,0,0,0-.714-.816H.714A.77.77,0,0,0,0,68.98V71.02A.77.77,0,0,0,.714,71.837ZM.714,80H19.286A.77.77,0,0,0,20,79.184V77.143a.77.77,0,0,0-.714-.816H.714A.77.77,0,0,0,0,77.143v2.041A.77.77,0,0,0,.714,80Z" transform="translate(0 -60)" fill="#e88301" opacity="0.9"/>
</svg>
