<svg id="Layer_1" data-name="Layer 1" xmlns="http://www.w3.org/2000/svg" viewBox="0 0 500 500"><defs><style>.cls-1{fill:#fff;}.cls-2{fill:#ed6d3b;}</style></defs><title>FFFFF</title><path class="cls-1" d="M125.43,191.51v14.83l8.87,1.06,24.35,2.93,13.11,1.58h7.13L192,210.33c.1-6.31.27-12.57.43-18.82ZM192,421.38l-13.11-1.57h-7.13l-13.11,1.57-33.22,4v14.86h99.81V425.37Zm-.63-99.94V304.36c0-31.75,0-63.22.63-94,.1-6.31.27-12.57.43-18.82H158.22q.27,9.38.43,18.82c.65,32.06.65,64.28.65,96.25v18.57c0,32.48,0,64.7-.65,96.23-.1,6.32-.25,12.59-.43,18.85h34.21c-.18-6.26-.33-12.53-.43-18.85C191.39,390.22,191.37,358.06,191.37,321.44Zm-16-17.08v17.08H325V304.36Zm111-112.85-4.86,15.58,11.28,1.37,15.65,1.87,13.11,1.58h7.12l13.11-1.58,24-2.89,9.18-1.1V191.51ZM341.7,421.38l-13.11-1.57h-7.12l-13.11,1.57-33.24,4v14.86h99.8V425.37Zm-.64-96.23V306.58c0-32.49,0-64.71.64-96.25.1-6.31.25-12.57.44-18.82H307.92q.25,9.38.44,18.82c.6,31.31.62,62.8.62,94v17.08c0,37.1,0,69.26-.62,99.94q-.19,9.51-.44,18.85h34.22c-.19-6.28-.34-12.55-.44-18.85C341.06,389.35,341.06,357.11,341.06,325.15Z"/><path class="cls-1" d="M218.59,207.13l-11.28,1.37L192,210.33c.1-6.31.27-12.57.43-18.82h21.3Z"/><polygon class="cls-2" points="457.33 440.23 365.74 207.44 359.46 191.51 331.21 119.73 300.07 191.51 292.71 208.46 251.12 304.36 251.04 304.55 251.1 304.36 281.43 207.09 286.29 191.51 331.71 45.85 457.33 440.23"/><polygon class="cls-2" points="248.96 304.55 248.88 304.36 207.31 208.5 199.93 191.51 168.81 119.73 140.56 191.51 134.3 207.4 42.66 440.23 168.31 45.85 213.73 191.51 218.59 207.13 248.9 304.36 248.96 304.55"/></svg>