<svg xmlns="http://www.w3.org/2000/svg" width="127.823" height="133.044" viewBox="0 0 127.823 133.044">
  <g id="asxasx" transform="translate(0 0)">
    <path id="Path_7" data-name="Path 7" d="M257.64,148.357c-.534.534-1.03,1.023-1.5,1.5-.346.361-.677.752-1.023,1.09l-5.851,5.926q-3.557,3.61-7.084,7.227l-7.2,7.34q-3.5,3.55-6.979,7.122l-7.212,7.347-7.084,7.227-7.137,7.287c-.436.444-.85.91-1.286,1.376-.278-.128-.414-.248-.165-.5s.594-.669.91-.993q3.136-3.166,6.28-6.347,3.58-3.632,7.137-7.28t7.092-7.227l7.137-7.28,7.039-7.182,7.242-7.385,6.979-7.122c.872-.895,1.73-1.8,2.632-2.745.2.18.376.308.526.459l5.061,5.121,6.926,7.069,7.25,7.393,6.979,7.122,7.295,7.445q3.474,3.527,6.934,7.069,3.625,3.693,7.242,7.393c1.414,1.444,2.82,2.9,4.219,4.362.158.158.466.316,0,.639-.278-.271-.579-.557-.865-.85-.4-.414-.752-.842-1.181-1.256q-2.843-2.88-5.693-5.761l-7.084-7.227-7.2-7.34-7.024-7.174-7.144-7.28-7.144-7.287q-3.542-3.61-7.084-7.227C258.956,149.755,258.332,149.079,257.64,148.357Z" transform="translate(-193.705 -147.74)" fill="#fffcf2"/>
    <path id="Path_8" data-name="Path 8" d="M261.433,311.223l-3.971-4.016c-.068-.068-.143-.135-.211-.211-2.106-2.068-4.211-4.129-6.31-6.2q-3.85-3.76-7.671-7.6l-6.866-6.814-7.678-7.6-7.295-7.235c-.248-.248-.474-.519-.752-.752.075-.278.211-.421.466-.18s.609.662.925.978l6.475,6.362q3.715,3.655,7.4,7.34l3.467,3.429,7.558,7.52,7.129,7.077,6.768,6.708c.188.2.391.376.632.6l3.234-3.181c.128-.128.233-.263.353-.391l6.317-6.2,7.724-7.648,2.542-2.542,8.378-8.272,6.768-6.708c1.594-1.587,3.181-3.189,4.768-4.776a1.375,1.375,0,0,1,.4-.331,1.716,1.716,0,0,1,.391.158,7.955,7.955,0,0,1-.684.752l-5.565,5.482-8.378,8.272-7.242,7.182-7.453,7.385-7.084,7.024-4.294,4.294A1.324,1.324,0,0,0,261.433,311.223Z" transform="translate(-197.597 -178.178)" fill="#fffcf2"/>
    <path id="Path_9" data-name="Path 9" d="M204.917,224c-.594,2.376-2.354,3.467-4.219,4.512,1.6-.2,2.805-1.181,4.219-2.106a3.188,3.188,0,0,1-1.5,1.97c-.669.414-1.4.752-2.076,1.128.993.113,1.7-.594,2.6-.948a1.391,1.391,0,0,1-.692,1.384,3.626,3.626,0,0,1-1.775.534,4.343,4.343,0,0,1-.827,0,6.182,6.182,0,0,0-4.467,1.384,4.572,4.572,0,0,1-2.256.993,5.263,5.263,0,0,1-2.572-.376,2,2,0,0,1-1.053-.917c-.053-.105-.12-.271-.075-.338s.218-.226,0-.376a.459.459,0,0,1-.113-.714c.218-.308.481-.18.752-.038a6.652,6.652,0,0,1,.549.391,1.639,1.639,0,0,0,1.9.12,2.181,2.181,0,0,0,1.278-1.5l.692.181a7.76,7.76,0,0,1,.316-.752c.105-.181.248-.421.414-.459a1.963,1.963,0,0,0,.88-.534c.647-.594.933-.6,1.632-.105a1.7,1.7,0,0,0,2.219.06,8.343,8.343,0,0,0,.8-.669l3.046-2.67A1.7,1.7,0,0,1,204.917,224Z" transform="translate(-189.986 -166.649)" fill="#fffcf2"/>
    <path id="Path_10" data-name="Path 10" d="M350.441,228.536a2.106,2.106,0,0,0,1.451,1.5,1.918,1.918,0,0,0,1.79-.2c.188-.128.368-.263.564-.376a.459.459,0,0,1,.707.15c.173.293,0,.459-.226.609a1.644,1.644,0,0,0-.173.158l.271.286a1.782,1.782,0,0,1-1.068,1.158,4.445,4.445,0,0,1-4.618-.361c-.466-.331-.955-.639-1.444-.94a4.926,4.926,0,0,0-2.948-.662,5.385,5.385,0,0,1-2.579-.3,1.609,1.609,0,0,1-1.09-1.316.624.624,0,0,1,0-.241c.895.286,1.6,1.068,2.775.933-.241-.135-.368-.211-.5-.271-.6-.3-1.226-.564-1.8-.9a3.279,3.279,0,0,1-1.414-1.8c1.414.692,2.579,1.88,4.407,2.061-1.97-1.136-3.9-2.128-4.467-4.6a2.558,2.558,0,0,1,.436.256l3.565,3.1a1.707,1.707,0,0,0,2.482,0,.88.88,0,0,1,1.429.053,1.858,1.858,0,0,0,1.023.692c.173,0,.346.331.429.541C349.719,228.717,349.7,228.724,350.441,228.536Z" transform="translate(-227.2 -166.508)" fill="#fffcf2"/>
    <path id="Path_11" data-name="Path 11" d="M203.269,234.452h-1.008a2.451,2.451,0,0,0-.662,0c-1.188.3-2.369.587-3.535.955a16.423,16.423,0,0,1-4.264.707,1.451,1.451,0,0,1-1.181-.444h.88a7.889,7.889,0,0,0,4.67-.948,6.543,6.543,0,0,1,3.512-.835H202.8C203.149,233.873,203.367,233.97,203.269,234.452Z" transform="translate(-190.639 -169.099)" fill="#fffcf2"/>
    <path id="Path_12" data-name="Path 12" d="M353.814,235.065a1.271,1.271,0,0,1-1.188.489,15.854,15.854,0,0,1-4.272-.692c-.684-.218-1.391-.384-2.091-.564a4.683,4.683,0,0,1-.752-.173,3.144,3.144,0,0,0-1.745-.181c-.241,0-.647.158-.677-.233s.384-.361.662-.361H345.7a4.677,4.677,0,0,1,2.2.639,8.273,8.273,0,0,0,5.407,1.075A3.211,3.211,0,0,1,353.814,235.065Z" transform="translate(-227.948 -168.967)" fill="#fffcf2"/>
    <text id="HERMES" transform="translate(25.778 80.782)" fill="#fffcf2" font-size="16" font-family="Merriweather-Regular, Merriweather" letter-spacing="0.1em"><tspan x="0" y="0">H</tspan><tspan y="0" fill="#e88301">E</tspan><tspan y="0">RM</tspan><tspan y="0" fill="#e88301">E</tspan><tspan y="0">S</tspan></text>
    <line id="Line_2" data-name="Line 2" x2="23.381" transform="translate(12.653 78.205)" fill="none"/>
  </g>
</svg>
